<?xml version="1.0" encoding="utf-8"?>
<!-- Generator: Adobe Illustrator 21.0.0, SVG Export Plug-In . SVG Version: 6.00 Build 0)  -->
<svg version="1.1" id="Layer_1" xmlns="http://www.w3.org/2000/svg" xmlns:xlink="http://www.w3.org/1999/xlink" x="0px" y="0px"
	 viewBox="0 0 246.2 200" style="enable-background:new 0 0 246.2 200;" xml:space="preserve">
<style type="text/css">
	.st0{fill:#F78F08;}
</style>
<g>
	<path class="st0" d="M155.5,95.7c-6.1,0-11.3,2.3-15.6,6.8c-4.3,4.5-6.5,10-6.5,16.3c0,6.4,2.2,11.8,6.5,16.3
		c4.3,4.5,9.5,6.7,15.6,6.7c2.2,0,4.2-0.3,6.3-0.9c1.6-0.5,2.1-2.6,0.9-3.8l-5.7-5.9c-0.9-0.9-0.9-2.3,0-3.2l7.3-7.6
		c0.8-0.9,2.2-0.9,3.1,0l5.7,5.9c1.2,1.2,3.2,0.7,3.6-0.9c0.6-2.1,0.9-4.3,0.9-6.5c0-6.3-2.2-11.8-6.5-16.3
		C166.8,98,161.6,95.7,155.5,95.7z"/>
	<path class="st0" d="M178.5,65.8l10-25.8l-25-10L160,55.3l-36.7-29.6l-97.5,74.4l5.1,11.6L40,109l12.1,64.2l146.8-0.1L211.7,99
		l10.5,4.1l5.4-12.8L178.5,65.8z M113.3,153.4c0,1.8-1.4,3.3-3.2,3.3h-8.2c-1.8,0-3.2-1.5-3.2-3.3v-23.8c0-1.8-1.4-3.3-3.2-3.3H80.1
		c-1.8,0-3.2,1.5-3.2,3.3v23.8c0,1.8-1.4,3.3-3.2,3.3h-8.2c-1.8,0-3.2-1.5-3.2-3.3V84c0-1.8,1.4-3.3,3.2-3.3h8.2
		c1.8,0,3.2,1.5,3.2,3.3v23.8c0,1.8,1.4,3.3,3.2,3.3h15.5c1.8,0,3.2-1.5,3.2-3.3V84c0-1.8,1.4-3.3,3.2-3.3h8.2
		c1.8,0,3.2,1.5,3.2,3.3V153.4z M187.6,141.3l3.5,3.6c0.9,0.9,0.9,2.3,0,3.2l-7.3,7.6c-0.8,0.9-2.2,0.9-3.1,0l-3.5-3.6
		c-0.7-0.7-1.8-0.9-2.6-0.3c-5.8,3.6-12.1,5.5-18.9,5.5c-10.1,0-18.8-3.8-26-11.3c-7.2-7.5-10.8-16.6-10.8-27.1
		c0-10.6,3.6-19.6,10.8-27.2c7.2-7.6,15.9-11.3,26-11.3l-0.1,0c10.1,0,18.8,3.8,26.1,11.3c7.2,7.6,10.9,16.6,10.9,27.2
		c0,7.1-1.7,13.7-5.2,19.7C186.7,139.4,186.9,140.6,187.6,141.3z"/>
</g>
</svg>
